<svg width="28" height="28" viewBox="0 0 28 28" fill="none" xmlns="http://www.w3.org/2000/svg">
<path d="M9.425 13.7L5.7875 10.1L7.3625 8.52502L9.3875 10.55L13.1375 6.80002L14.7125 8.37502L9.425 13.7ZM25.85 27.4625L15.9875 17.6C15.2375 18.25 14.363 18.7563 13.364 19.1188C12.3651 19.4813 11.3021 19.6625 10.175 19.6625C7.47095 19.6625 5.18244 18.725 3.30946 16.85C1.43649 14.975 0.5 12.7125 0.5 10.0625C0.5 7.41252 1.4375 5.15002 3.3125 3.27502C5.1875 1.40002 7.45625 0.462524 10.1188 0.462524C12.7813 0.462524 15.0438 1.40002 16.9062 3.27502C18.7688 5.15002 19.7 7.4144 19.7 10.0681C19.7 11.1394 19.525 12.175 19.175 13.175C18.825 14.175 18.3 15.1125 17.6 15.9875L27.5 25.8125L25.85 27.4625ZM10.1375 17.4125C12.1688 17.4125 13.8953 16.6938 15.3172 15.2563C16.7391 13.8188 17.45 12.0875 17.45 10.0625C17.45 8.03752 16.7391 6.30627 15.3172 4.86877C13.8953 3.43127 12.1688 2.71252 10.1375 2.71252C8.08543 2.71252 6.34115 3.43127 4.90468 4.86877C3.46822 6.30627 2.75 8.03752 2.75 10.0625C2.75 12.0875 3.46822 13.8188 4.90468 15.2563C6.34115 16.6938 8.08543 17.4125 10.1375 17.4125Z" fill="#555555"/>
</svg>
