<svg width="24" height="31" viewBox="0 0 24 31" fill="none" xmlns="http://www.w3.org/2000/svg">
<path d="M22.836 6.72035C21.9626 4.83483 20.5795 3.21641 18.8347 2.03843C17.09 0.86045 15.0493 0.167297 12.9314 0.0332142C12.3113 -0.0110714 11.6887 -0.0110714 11.0686 0.0332142C8.95066 0.167297 6.91002 0.86045 5.16527 2.03843C3.42052 3.21641 2.0374 4.83483 1.16405 6.72035C0.226001 8.68496 -0.155967 10.8583 0.0577279 13.0153C0.271422 15.1722 1.073 17.2342 2.3794 18.9875L11.08 30.5461C11.186 30.6868 11.3246 30.8012 11.4844 30.8801C11.6442 30.9589 11.8209 31 12 31C12.1791 31 12.3558 30.9589 12.5156 30.8801C12.6754 30.8012 12.814 30.6868 12.92 30.5461L21.6206 18.9875C22.927 17.2342 23.7286 15.1722 23.9423 13.0153C24.156 10.8583 23.774 8.68496 22.836 6.72035ZM12 15.2069C11.2732 15.2069 10.5627 14.9969 9.95839 14.6033C9.35408 14.2097 8.88307 13.6503 8.60493 12.9957C8.3268 12.3412 8.25402 11.621 8.39581 10.9262C8.53761 10.2314 8.8876 9.59313 9.40153 9.09218C9.91546 8.59124 10.5702 8.25009 11.2831 8.11188C11.9959 7.97367 12.7348 8.04461 13.4063 8.31572C14.0778 8.58682 14.6517 9.04593 15.0555 9.63498C15.4593 10.224 15.6748 10.9166 15.6748 11.625C15.6751 12.0955 15.5802 12.5614 15.3956 12.9961C15.2111 13.4308 14.9404 13.8258 14.5991 14.1584C14.2578 14.4911 13.8526 14.7549 13.4066 14.9348C12.9606 15.1147 12.4827 15.2072 12 15.2069Z" fill="#555555"/>
</svg>
