<svg width="30" height="31" viewBox="0 0 30 31" fill="none" xmlns="http://www.w3.org/2000/svg">
<path d="M5.925 22.7187H7.8V20.4218H22.2V22.7187H24.075V16.7395C24.075 16.0347 23.85 15.4149 23.4 14.8802C22.95 14.3454 22.375 14.0173 21.675 13.8958V11.2708C21.675 10.5659 21.425 9.97044 20.925 9.48433C20.425 8.99822 19.8125 8.75517 19.0875 8.75517H10.9125C10.1875 8.75517 9.575 8.99822 9.075 9.48433C8.575 9.97044 8.325 10.5659 8.325 11.2708V13.8958C7.625 14.0173 7.05 14.3454 6.6 14.8802C6.15 15.4149 5.925 16.0347 5.925 16.7395V22.7187ZM7.8 18.5989V16.7395C7.8 16.3993 7.9125 16.1198 8.1375 15.901C8.3625 15.6823 8.65 15.5729 9 15.5729H21C21.35 15.5729 21.6375 15.6823 21.8625 15.901C22.0875 16.1198 22.2 16.3993 22.2 16.7395V18.5989H7.8ZM10.2 13.7864V10.5781H19.8V13.7864H10.2ZM2.25 30.0833C1.65 30.0833 1.125 29.8645 0.675 29.427C0.225 28.9895 0 28.4791 0 27.8958V3.10413C0 2.52079 0.225 2.01038 0.675 1.57288C1.125 1.13538 1.65 0.916626 2.25 0.916626H27.75C28.35 0.916626 28.875 1.13538 29.325 1.57288C29.775 2.01038 30 2.52079 30 3.10413V27.8958C30 28.4791 29.775 28.9895 29.325 29.427C28.875 29.8645 28.35 30.0833 27.75 30.0833H2.25ZM2.25 27.8958H27.75V3.10413H2.25V27.8958Z" fill="#555555"/>
</svg>
