<svg width="30" height="30" viewBox="0 0 30 30" fill="none" xmlns="http://www.w3.org/2000/svg">
<path d="M2.2875 13.875H7.425C7.25 12.675 6.9 11.5438 6.375 10.4813C5.85 9.41875 5.2 8.5 4.425 7.725C3.85 8.6 3.3625 9.55 2.9625 10.575C2.5625 11.6 2.3375 12.7 2.2875 13.875ZM22.575 13.875H27.7125C27.6625 12.7 27.4375 11.6 27.0375 10.575C26.6375 9.55 26.15 8.6 25.575 7.725C24.725 8.575 24.0563 9.5125 23.5688 10.5375C23.0813 11.5625 22.75 12.675 22.575 13.875ZM4.425 22.2375C5.275 21.3875 5.94375 20.4563 6.43125 19.4438C6.91875 18.4313 7.25 17.325 7.425 16.125H2.2875C2.3375 17.3 2.5625 18.3938 2.9625 19.4062C3.3625 20.4188 3.85 21.3625 4.425 22.2375ZM25.575 22.2375C26.15 21.3625 26.6375 20.4188 27.0375 19.4062C27.4375 18.3938 27.6625 17.3 27.7125 16.125H22.575C22.75 17.325 23.0813 18.4313 23.5688 19.4438C24.0563 20.4563 24.725 21.3875 25.575 22.2375ZM9.7125 13.875H13.875V2.2875C12.325 2.4625 10.8813 2.8625 9.54375 3.4875C8.20625 4.1125 7 4.95 5.925 6C6.95 7.025 7.7875 8.2125 8.4375 9.5625C9.0875 10.9125 9.5125 12.35 9.7125 13.875ZM16.125 13.875H20.2875C20.4875 12.35 20.9188 10.9125 21.5813 9.5625C22.2438 8.2125 23.0875 7.025 24.1125 6C23.0375 4.95 21.825 4.1125 20.475 3.4875C19.125 2.8625 17.675 2.4625 16.125 2.2875V13.875ZM13.875 27.7125V16.125H9.7125C9.5125 17.65 9.0875 19.0813 8.4375 20.4188C7.7875 21.7563 6.95 22.9375 5.925 23.9625C7 25.0125 8.175 25.8563 9.45 26.4938C10.725 27.1313 12.2 27.5375 13.875 27.7125ZM16.125 27.7125C17.8 27.5375 19.2812 27.1313 20.5688 26.4938C21.8563 25.8563 23.0375 25.0125 24.1125 23.9625C23.0875 22.9375 22.2438 21.7563 21.5813 20.4188C20.9188 19.0813 20.4875 17.65 20.2875 16.125H16.125V27.7125ZM15 30C12.925 30 10.975 29.6063 9.15 28.8188C7.325 28.0313 5.7375 26.9625 4.3875 25.6125C3.0375 24.2625 1.96875 22.675 1.18125 20.85C0.39375 19.025 0 17.075 0 15C0 12.925 0.39375 10.975 1.18125 9.15C1.96875 7.325 3.0375 5.7375 4.3875 4.3875C5.7375 3.0375 7.325 1.96875 9.15 1.18125C10.975 0.39375 12.925 0 15 0C17.075 0 19.025 0.39375 20.85 1.18125C22.675 1.96875 24.2625 3.0375 25.6125 4.3875C26.9625 5.7375 28.0313 7.325 28.8188 9.15C29.6063 10.975 30 12.925 30 15C30 17.075 29.6063 19.025 28.8188 20.85C28.0313 22.675 26.9625 24.2625 25.6125 25.6125C24.2625 26.9625 22.675 28.0313 20.85 28.8188C19.025 29.6063 17.075 30 15 30Z" fill="#555555"/>
</svg>
