<svg width="22" height="28" viewBox="0 0 22 28" fill="none" xmlns="http://www.w3.org/2000/svg">
<path d="M17.5124 20.2092C18.5656 20.2092 19.4586 20.5756 20.1915 21.3085C20.9243 22.0413 21.2907 22.9343 21.2907 23.9875C21.2907 25.0407 20.9243 25.9337 20.1915 26.6665C19.4586 27.3993 18.5656 27.7657 17.5124 27.7657C16.6994 27.7657 15.9679 27.538 15.318 27.0824C14.6681 26.6268 14.2144 26.0296 13.9569 25.2907H4.18167L3.12426 27.1223C2.92998 27.4367 2.6571 27.6397 2.30562 27.7314C1.95415 27.823 1.63269 27.769 1.34123 27.5692C1.05528 27.3749 0.860739 27.1091 0.757614 26.7719C0.654489 26.4346 0.70007 26.1115 0.894358 25.8026L5.9699 16.9264C4.17243 16.1821 2.78696 14.951 1.81351 13.233C0.840057 11.515 0.372511 9.67429 0.410873 7.71092H20.589C20.6274 9.67429 20.1598 11.515 19.1864 13.233C18.2129 14.951 16.8389 16.1821 15.0644 16.9264L16.1098 18.7229C15.6754 18.8265 15.2655 18.9938 14.8801 19.2247C14.4948 19.4556 14.1444 19.714 13.8291 20L12.5692 17.8172C12.2155 17.8859 11.8681 17.9375 11.5271 17.9719C11.1861 18.0062 10.8437 18.0234 10.4999 18.0234C10.1791 18.0234 9.85392 18.0062 9.52437 17.9719C9.19481 17.9375 8.85317 17.8859 8.49945 17.8172L5.6994 22.6842H13.9569C14.2144 21.9454 14.6681 21.3482 15.318 20.8926C15.9679 20.437 16.6994 20.2092 17.5124 20.2092ZM17.5124 25.1592C17.8398 25.1592 18.1169 25.0458 18.3438 24.8188C18.5707 24.5919 18.6842 24.3148 18.6842 23.9875C18.6842 23.6602 18.5707 23.383 18.3438 23.1561C18.1169 22.9292 17.8398 22.8157 17.5124 22.8157C17.1851 22.8157 16.908 22.9292 16.6811 23.1561C16.4542 23.383 16.3407 23.6602 16.3407 23.9875C16.3407 24.3148 16.4542 24.5919 16.6811 24.8188C16.908 25.0458 17.1851 25.1592 17.5124 25.1592ZM10.4999 15.2674C12.0483 15.2674 13.4546 14.8272 14.7187 13.9466C15.9829 13.0661 16.8812 11.8974 17.4138 10.4407H3.58609C4.11318 11.8974 5.01016 13.0661 6.27704 13.9466C7.54394 14.8272 8.95157 15.2674 10.4999 15.2674ZM7.00414 5.97873C7.05545 5.63498 7.01485 5.27702 6.88234 4.90486C6.74982 4.53271 6.53684 4.21088 6.24342 3.93937C5.86678 3.58466 5.6056 3.13331 5.45987 2.5853C5.31417 2.0373 5.30682 1.47733 5.43784 0.905396H7.24552C7.17129 1.36923 7.14589 1.73566 7.16931 2.00467C7.19271 2.27369 7.27964 2.46375 7.43011 2.57485C7.95619 3.05509 8.34066 3.60223 8.58353 4.21626C8.8264 4.83026 8.89377 5.41776 8.78565 5.97873H7.00414ZM10.4603 5.97873C10.5171 5.63498 10.4765 5.27702 10.3385 4.90486C10.2005 4.53271 9.98482 4.21088 9.69137 3.93937C9.29732 3.55627 9.03178 3.09209 8.89476 2.54684C8.75776 2.00156 8.75477 1.45441 8.88579 0.905396H10.6935C10.5734 1.30048 10.5365 1.64399 10.5829 1.93592C10.6292 2.22786 10.7276 2.44084 10.8781 2.57485C11.3867 3.06057 11.7668 3.61044 12.0184 4.22447C12.27 4.83848 12.3417 5.42323 12.2336 5.97873H10.4603ZM13.8739 5.97873C13.9307 5.6579 13.8844 5.30567 13.7349 4.92205C13.5855 4.53844 13.364 4.21088 13.0706 3.93937C12.6994 3.57919 12.4467 3.1322 12.3125 2.5984C12.1782 2.06458 12.1766 1.50024 12.3076 0.905396H14.0809C13.9838 1.3234 13.9513 1.67263 13.9834 1.95311C14.0155 2.23359 14.1068 2.44084 14.2573 2.57485C14.7888 3.06057 15.1761 3.61617 15.4189 4.24166C15.6618 4.86713 15.7406 5.44615 15.6554 5.97873H13.8739Z" fill="#555555"/>
</svg>
