<svg width="30" height="30" viewBox="0 0 30 30" fill="none" xmlns="http://www.w3.org/2000/svg">
<path d="M15.3337 30C11.2479 30 7.78207 28.577 4.93604 25.7309C2.09001 22.8849 0.666992 19.419 0.666992 15.3333C0.666992 11.2476 2.09001 7.78174 4.93604 4.93571C7.78207 2.08968 11.2479 0.666664 15.3337 0.666664C19.4194 0.666664 22.8852 2.08968 25.7313 4.93571C28.5773 7.78174 30.0003 11.2476 30.0003 15.3333C30.0003 19.419 28.5773 22.8849 25.7313 25.7309C22.8852 28.577 19.4194 30 15.3337 30ZM15.3337 26.8571C18.5464 26.8571 21.2702 25.7397 23.5051 23.5048C25.74 21.2698 26.8575 18.546 26.8575 15.3333C26.8575 12.1206 25.74 9.39682 23.5051 7.1619C21.2702 4.92698 18.5464 3.80952 15.3337 3.80952C12.121 3.80952 9.39715 4.92698 7.16223 7.1619C4.92731 9.39682 3.80985 12.1206 3.80985 15.3333C3.80985 18.546 4.92731 21.2698 7.16223 23.5048C9.39715 25.7397 12.121 26.8571 15.3337 26.8571ZM10.9337 14.6C11.3527 14.6 11.7194 14.4429 12.0337 14.1286C12.3479 13.8143 12.5051 13.4476 12.5051 13.0286C12.5051 12.6095 12.3479 12.2429 12.0337 11.9286C11.7194 11.6143 11.3527 11.4571 10.9337 11.4571C10.5146 11.4571 10.1479 11.6143 9.83366 11.9286C9.51937 12.2429 9.36223 12.6095 9.36223 13.0286C9.36223 13.4476 9.51937 13.8143 9.83366 14.1286C10.1479 14.4429 10.5146 14.6 10.9337 14.6ZM19.7337 14.6C20.1527 14.6 20.5194 14.4429 20.8337 14.1286C21.1479 13.8143 21.3051 13.4476 21.3051 13.0286C21.3051 12.6095 21.1479 12.2429 20.8337 11.9286C20.5194 11.6143 20.1527 11.4571 19.7337 11.4571C19.3146 11.4571 18.9479 11.6143 18.6337 11.9286C18.3194 12.2429 18.1622 12.6095 18.1622 13.0286C18.1622 13.4476 18.3194 13.8143 18.6337 14.1286C18.9479 14.4429 19.3146 14.6 19.7337 14.6ZM15.3337 9.88571C15.7527 9.88571 16.1194 9.72857 16.4337 9.41428C16.7479 9.1 16.9051 8.73333 16.9051 8.31428C16.9051 7.89524 16.7479 7.52857 16.4337 7.21428C16.1194 6.9 15.7527 6.74285 15.3337 6.74285C14.9146 6.74285 14.5479 6.9 14.2337 7.21428C13.9194 7.52857 13.7622 7.89524 13.7622 8.31428C13.7622 8.73333 13.9194 9.1 14.2337 9.41428C14.5479 9.72857 14.9146 9.88571 15.3337 9.88571Z" fill="#555555"/>
</svg>
