<svg width="30" height="30" viewBox="0 0 30 30" fill="none" xmlns="http://www.w3.org/2000/svg">
<path d="M15 15C15 12.9318 15.733 11.1648 17.1989 9.69886C18.6648 8.23295 20.4318 7.5 22.5 7.5C24.5682 7.5 26.3352 8.23295 27.8011 9.69886C29.267 11.1648 30 12.9318 30 15H15ZM7.5 22.5C5.43182 22.5 3.66477 21.767 2.19886 20.3011C0.732955 18.8352 0 17.0682 0 15H15C15 17.0682 14.267 18.8352 12.8011 20.3011C11.3352 21.767 9.56818 22.5 7.5 22.5ZM15 15C12.9318 15 11.1648 14.267 9.69886 12.8011C8.23295 11.3352 7.5 9.56818 7.5 7.5C7.5 5.43182 8.23295 3.66477 9.69886 2.19886C11.1648 0.732955 12.9318 0 15 0V15ZM15 30V15C17.0682 15 18.8352 15.733 20.3011 17.1989C21.767 18.6648 22.5 20.4318 22.5 22.5C22.5 24.5682 21.767 26.3352 20.3011 27.8011C18.8352 29.267 17.0682 30 15 30Z" fill="#555555"/>
</svg>
