<svg width="26" height="28" viewBox="0 0 26 28" fill="none" xmlns="http://www.w3.org/2000/svg">
<path d="M6.78125 9.46875L9.125 7.125L6.78125 4.78125L4.4375 7.125L6.78125 9.46875ZM2.375 16.5C1.875 16.5 1.4375 16.3125 1.0625 15.9375C0.6875 15.5625 0.5 15.125 0.5 14.625V2.125C0.5 1.625 0.6875 1.1875 1.0625 0.8125C1.4375 0.4375 1.875 0.25 2.375 0.25H23.625C24.125 0.25 24.5625 0.4375 24.9375 0.8125C25.3125 1.1875 25.5 1.625 25.5 2.125V14.625C25.5 15.125 25.3125 15.5625 24.9375 15.9375C24.5625 16.3125 24.125 16.5 23.625 16.5H18.9688C19.0729 16.2083 19.1458 15.9062 19.1875 15.5938C19.2292 15.2812 19.25 14.9583 19.25 14.625H23.625V2.125H2.375V14.625H6.75C6.75 14.9583 6.77083 15.2812 6.8125 15.5938C6.85417 15.9062 6.92708 16.2083 7.03125 16.5H2.375ZM18.6268 7.59375C19.1048 7.59375 19.5104 7.42647 19.8438 7.09191C20.1771 6.75734 20.3438 6.35109 20.3438 5.87316C20.3438 5.39522 20.1765 4.98958 19.8419 4.65625C19.5073 4.32292 19.1011 4.15625 18.6232 4.15625C18.1452 4.15625 17.7396 4.32353 17.4062 4.65809C17.0729 4.99266 16.9062 5.39891 16.9062 5.87684C16.9062 6.35478 17.0735 6.76042 17.4081 7.09375C17.7427 7.42708 18.1489 7.59375 18.6268 7.59375ZM4.25 27.75V25.125C4.25 24.3958 4.45312 23.7188 4.85938 23.0938C5.26562 22.4688 5.80208 22 6.46875 21.6875C7.48958 21.2083 8.55208 20.849 9.65625 20.6094C10.7604 20.3698 11.875 20.25 13 20.25C14.125 20.25 15.2396 20.3698 16.3438 20.6094C17.4479 20.849 18.5104 21.2083 19.5312 21.6875C20.1979 22 20.7344 22.4688 21.1406 23.0938C21.5469 23.7188 21.75 24.3958 21.75 25.125V27.75H4.25ZM6.125 25.875H19.875V25.125C19.875 24.7578 19.7708 24.4212 19.5625 24.1152C19.3542 23.8092 19.0729 23.5729 18.7188 23.4062C17.8229 22.9896 16.8958 22.6719 15.9375 22.4531C14.9792 22.2344 14 22.125 13 22.125C12 22.125 11.0208 22.2344 10.0625 22.4531C9.10417 22.6719 8.17708 22.9896 7.28125 23.4062C6.92708 23.5729 6.64583 23.8092 6.4375 24.1152C6.22917 24.4212 6.125 24.7578 6.125 25.125V25.875ZM13 19C11.7917 19 10.7604 18.5729 9.90625 17.7188C9.05208 16.8646 8.625 15.8333 8.625 14.625C8.625 13.4167 9.05208 12.3854 9.90625 11.5312C10.7604 10.6771 11.7917 10.25 13 10.25C14.2083 10.25 15.2396 10.6771 16.0938 11.5312C16.9479 12.3854 17.375 13.4167 17.375 14.625C17.375 15.8333 16.9479 16.8646 16.0938 17.7188C15.2396 18.5729 14.2083 19 13 19ZM12.9927 17.125C13.6851 17.125 14.276 16.8827 14.7656 16.398C15.2552 15.9133 15.5 15.3248 15.5 14.6323C15.5 13.9399 15.2577 13.349 14.773 12.8594C14.2883 12.3698 13.6998 12.125 13.0073 12.125C12.3149 12.125 11.724 12.3673 11.2344 12.852C10.7448 13.3367 10.5 13.9252 10.5 14.6177C10.5 15.3101 10.7423 15.901 11.227 16.3906C11.7117 16.8802 12.3002 17.125 12.9927 17.125Z" fill="#555555"/>
</svg>
