<svg width="28" height="24" viewBox="0 0 28 24" fill="none" xmlns="http://www.w3.org/2000/svg">
<path d="M0.666992 24V8L11.3337 0L19.3337 6C18.8892 6 18.4448 6.05 18.0003 6.15C17.5559 6.25 17.1448 6.38889 16.767 6.56667L11.3337 2.5L2.66699 9V22H9.33366V24H0.666992ZM11.3337 24V21.4667C11.3337 21 11.4503 20.5611 11.6837 20.15C11.917 19.7389 12.2337 19.4111 12.6337 19.1667C13.6559 18.5667 14.7281 18.1111 15.8503 17.8C16.9725 17.4889 18.1337 17.3333 19.3337 17.3333C20.5337 17.3333 21.6948 17.4889 22.817 17.8C23.9392 18.1111 25.0114 18.5667 26.0337 19.1667C26.4337 19.4111 26.7503 19.7389 26.9837 20.15C27.217 20.5611 27.3337 21 27.3337 21.4667V24H11.3337ZM13.3337 22H25.3337V21.0333C24.4003 20.5 23.4311 20.0833 22.4261 19.7833C21.421 19.4833 20.3902 19.3333 19.3337 19.3333C18.2771 19.3333 17.2463 19.4889 16.2412 19.8C15.2362 20.1111 14.267 20.5333 13.3337 21.0667V22ZM19.3337 16C18.2225 16 17.2781 15.6111 16.5003 14.8333C15.7225 14.0556 15.3337 13.1111 15.3337 12C15.3337 10.8889 15.7225 9.94444 16.5003 9.16667C17.2781 8.38889 18.2225 8 19.3337 8C20.4448 8 21.3892 8.38889 22.167 9.16667C22.9448 9.94444 23.3337 10.8889 23.3337 12C23.3337 13.1111 22.9448 14.0556 22.167 14.8333C21.3892 15.6111 20.4448 16 19.3337 16ZM19.3337 14C19.9003 14 20.3753 13.8083 20.7587 13.425C21.142 13.0417 21.3337 12.5667 21.3337 12C21.3337 11.4333 21.142 10.9583 20.7587 10.575C20.3753 10.1917 19.9003 10 19.3337 10C18.767 10 18.292 10.1917 17.9087 10.575C17.5253 10.9583 17.3337 11.4333 17.3337 12C17.3337 12.5667 17.5253 13.0417 17.9087 13.425C18.292 13.8083 18.767 14 19.3337 14Z" fill="#555555"/>
</svg>
