<svg width="26" height="26" viewBox="0 0 26 26" fill="none" xmlns="http://www.w3.org/2000/svg">
<path d="M2.40625 25.5C1.86458 25.5 1.41667 25.3229 1.0625 24.9688C0.708333 24.6146 0.53125 24.1667 0.53125 23.625V2.375C0.53125 1.89583 0.708333 1.46354 1.0625 1.07812C1.41667 0.692708 1.86458 0.5 2.40625 0.5H23.6562C24.1354 0.5 24.5677 0.692708 24.9531 1.07812C25.3385 1.46354 25.5312 1.89583 25.5312 2.375V23.625C25.5312 24.1667 25.3385 24.6146 24.9531 24.9688C24.5677 25.3229 24.1354 25.5 23.6562 25.5H2.40625ZM2.40625 23.625H23.6562V2.375H2.40625V23.625ZM8.18203 15.7188C7.91484 15.7188 7.69271 15.6284 7.51562 15.4477C7.33854 15.2669 7.25 15.0429 7.25 14.7758C7.25 14.5086 7.34036 14.2865 7.52109 14.1094C7.70184 13.9323 7.9258 13.8438 8.19297 13.8438C8.46016 13.8438 8.68229 13.9341 8.85938 14.1148C9.03646 14.2956 9.125 14.5196 9.125 14.7867C9.125 15.0539 9.03464 15.276 8.85391 15.4531C8.67316 15.6302 8.4492 15.7188 8.18203 15.7188ZM17.8695 15.7188C17.6023 15.7188 17.3802 15.6284 17.2031 15.4477C17.026 15.2669 16.9375 15.0429 16.9375 14.7758C16.9375 14.5086 17.0279 14.2865 17.2086 14.1094C17.3893 13.9323 17.6133 13.8438 17.8805 13.8438C18.1477 13.8438 18.3698 13.9341 18.5469 14.1148C18.724 14.2956 18.8125 14.5196 18.8125 14.7867C18.8125 15.0539 18.7221 15.276 18.5414 15.4531C18.3607 15.6302 18.1367 15.7188 17.8695 15.7188ZM4.28125 12.1875V20.6875C4.28125 20.9062 4.35156 21.0859 4.49219 21.2266C4.63281 21.3672 4.8125 21.4375 5.03125 21.4375H5.40625C5.625 21.4375 5.80469 21.3672 5.94531 21.2266C6.08594 21.0859 6.15625 20.9062 6.15625 20.6875V18.6875H19.9062V20.6875C19.9062 20.9062 19.9766 21.0859 20.1172 21.2266C20.2578 21.3672 20.4375 21.4375 20.6562 21.4375H21.0312C21.25 21.4375 21.4297 21.3672 21.5703 21.2266C21.7109 21.0859 21.7812 20.9062 21.7812 20.6875V12.1875L19.7188 6.1875C19.6146 5.89583 19.4427 5.65625 19.2031 5.46875C18.9635 5.28125 18.6979 5.1875 18.4062 5.1875H7.65625C7.36458 5.1875 7.09896 5.28125 6.85938 5.46875C6.61979 5.65625 6.44792 5.89583 6.34375 6.1875L4.28125 12.1875ZM6.6875 10.875L7.9375 7.0625H18.125L19.4062 10.875H6.6875ZM6.15625 16.8125V12.75H19.9062V16.8125H6.15625Z" fill="#555555"/>
</svg>
