<svg width="30" height="30" viewBox="0 0 30 30" fill="none" xmlns="http://www.w3.org/2000/svg">
<path d="M15 30C12.95 30 11.0125 29.6062 9.1875 28.8187C7.3625 28.0312 5.76875 26.9562 4.40625 25.5938C3.04375 24.2313 1.96875 22.6375 1.18125 20.8125C0.39375 18.9875 0 17.05 0 15C0 12.925 0.39375 10.9813 1.18125 9.16875C1.96875 7.35625 3.04375 5.76875 4.40625 4.40625C5.76875 3.04375 7.3625 1.96875 9.1875 1.18125C11.0125 0.39375 12.95 0 15 0C17.075 0 19.0187 0.39375 20.8312 1.18125C22.6437 1.96875 24.2313 3.04375 25.5938 4.40625C26.9562 5.76875 28.0312 7.35625 28.8187 9.16875C29.6062 10.9813 30 12.925 30 15C30 17.05 29.6062 18.9875 28.8187 20.8125C28.0312 22.6375 26.9562 24.2313 25.5938 25.5938C24.2313 26.9562 22.6437 28.0312 20.8312 28.8187C19.0187 29.6062 17.075 30 15 30ZM22.6875 11.5125L25.275 10.6125L25.95 8.2125C25.1 6.8875 24.05 5.75625 22.8 4.81875C21.55 3.88125 20.1375 3.1625 18.5625 2.6625L16.125 4.275V6.9L22.6875 11.5125ZM7.35 11.5125L13.875 6.9V4.275L11.475 2.6625C9.9 3.1625 8.4875 3.88125 7.2375 4.81875C5.9875 5.75625 4.9375 6.8875 4.0875 8.2125L4.9125 10.6125L7.35 11.5125ZM5.325 23.5125L7.575 23.25L9.0375 20.8125L6.7125 13.65L4.05 12.75L2.25 14.2125C2.25 16.0125 2.45 17.6562 2.85 19.1437C3.25 20.6313 4.075 22.0875 5.325 23.5125ZM15 27.75C15.675 27.75 16.3563 27.6875 17.0438 27.5625C17.7313 27.4375 18.45 27.275 19.2 27.075L20.4375 24.375L19.2375 22.3125H10.8L9.6 24.375L10.8375 27.075C11.4875 27.275 12.175 27.4375 12.9 27.5625C13.625 27.6875 14.325 27.75 15 27.75ZM11.025 20.0625H18.825L21.1125 13.2L15 8.8125L8.775 13.2L11.025 20.0625ZM24.7125 23.5125C25.9375 22.0875 26.75 20.6313 27.15 19.1437C27.55 17.6562 27.75 16.0125 27.75 14.2125L25.95 12.975L23.325 13.65L21 20.8125L22.425 23.25L24.7125 23.5125Z" fill="#555555"/>
</svg>
