<svg width="24" height="30" viewBox="0 0 24 30" fill="none" xmlns="http://www.w3.org/2000/svg">
<path d="M2.625 30V27.75H10.875V21H7.5C5.425 21 3.65625 20.2688 2.19375 18.8063C0.73125 17.3438 0 15.575 0 13.5C0 12 0.4125 10.6188 1.2375 9.35625C2.0625 8.09375 3.175 7.175 4.575 6.6C4.8 4.725 5.61875 3.15625 7.03125 1.89375C8.44375 0.63125 10.1 0 12 0C13.9 0 15.5563 0.63125 16.9688 1.89375C18.3813 3.15625 19.2 4.725 19.425 6.6C20.825 7.175 21.9375 8.09375 22.7625 9.35625C23.5875 10.6188 24 12 24 13.5C24 15.575 23.2688 17.3438 21.8063 18.8063C20.3438 20.2688 18.575 21 16.5 21H13.125V27.75H21.75V30H2.625ZM7.5 18.75H16.5C17.9583 18.75 19.1979 18.2396 20.2188 17.2188C21.2396 16.1979 21.75 14.9583 21.75 13.5C21.75 12.45 21.45 11.4938 20.85 10.6313C20.25 9.76875 19.475 9.125 18.525 8.7L17.325 8.175L17.175 6.8625C17 5.5375 16.4227 4.4375 15.4431 3.5625C14.4636 2.6875 13.3159 2.25 12 2.25C10.6842 2.25 9.53644 2.6875 8.55686 3.5625C7.57729 4.4375 7 5.5375 6.825 6.8625L6.675 8.175L5.475 8.7C4.525 9.125 3.75 9.77158 3.15 10.6397C2.55 11.5079 2.25 12.4628 2.25 13.5046C2.25 14.9515 2.76041 16.1875 3.78124 17.2125C4.80209 18.2375 6.04168 18.75 7.5 18.75Z" fill="#555555"/>
</svg>
