<svg width="27" height="28" viewBox="0 0 27 28" fill="none" xmlns="http://www.w3.org/2000/svg">
<path d="M22.6372 10.5915C21.9303 10.5915 21.3285 10.3435 20.8317 9.84744C20.3349 9.35143 20.0865 8.7452 20.0865 8.02876C20.0865 7.31235 20.3353 6.70475 20.8329 6.20599C21.3305 5.70724 21.9333 5.45787 22.6414 5.45787C23.3494 5.45787 23.9508 5.70864 24.4456 6.21019C24.9404 6.71171 25.1879 7.31931 25.1879 8.03297C25.1879 8.7466 24.9395 9.35143 24.4427 9.84744C23.9459 10.3435 23.3441 10.5915 22.6372 10.5915ZM4.35465 10.5915C3.64777 10.5915 3.04595 10.3435 2.54917 9.84744C2.05237 9.35143 1.80397 8.7452 1.80397 8.02876C1.80397 7.31235 2.05277 6.70475 2.55037 6.20599C3.04797 5.70724 3.65077 5.45787 4.35879 5.45787C5.06682 5.45787 5.66825 5.70864 6.16307 6.21019C6.65788 6.71171 6.90529 7.31931 6.90529 8.03297C6.90529 8.7466 6.6569 9.35143 6.16013 9.84744C5.66335 10.3435 5.06153 10.5915 4.35465 10.5915ZM9.24123 9.09443C9.47453 8.19429 9.5383 7.50832 9.43256 7.03651C9.32681 6.56472 9.00101 5.98484 8.45516 5.29685C7.76617 4.48207 7.33326 3.70236 7.15643 2.95772C6.97959 2.21308 6.9894 1.22717 7.18585 0H8.86528C8.65478 1.16827 8.60376 1.99592 8.71224 2.48295C8.82072 2.96996 9.15654 3.55471 9.71971 4.23718C10.3805 5.04098 10.8134 5.8333 11.0184 6.61413C11.2235 7.39497 11.2007 8.22174 10.9501 9.09443H9.24123ZM12.9324 9.09443C13.1657 8.19429 13.2294 7.50832 13.1237 7.03651C13.0179 6.56472 12.6921 5.98484 12.1463 5.29685C11.4573 4.48207 11.0244 3.70236 10.8476 2.95772C10.6707 2.21308 10.6805 1.22717 10.877 0H12.5564C12.3177 0.91863 12.2582 1.68961 12.3781 2.31295C12.498 2.93626 12.8422 3.57767 13.4108 4.23718C14.0716 5.04098 14.5045 5.8333 14.7096 6.61413C14.9146 7.39497 14.8919 8.22174 14.6412 9.09443H12.9324ZM16.6235 9.09443C16.8568 8.19429 16.9206 7.50832 16.8148 7.03651C16.7091 6.56472 16.3833 5.98484 15.8374 5.29685C15.1484 4.48207 14.7155 3.70236 14.5387 2.95772C14.3619 2.21308 14.3717 1.22717 14.5681 0H16.2476C16.0544 1.12532 16.0077 1.94224 16.1075 2.45074C16.2073 2.95923 16.5388 3.55471 17.102 4.23718C17.7627 5.04098 18.1957 5.8333 18.4007 6.61413C18.6058 7.39497 18.583 8.22174 18.3324 9.09443H16.6235ZM2.80256 28C2.01004 28 1.34483 27.7289 0.806923 27.1867C0.268974 26.6445 0 25.974 0 25.1752V15.6674H1.80397V15.0016C1.80397 14.2687 2.04757 13.6288 2.53475 13.0819C3.02193 12.5349 3.61695 12.2615 4.31979 12.2615C4.69818 12.2615 5.06457 12.3329 5.41896 12.4757C5.77338 12.6184 6.07812 12.8326 6.3332 13.1182L7.64014 14.5995C7.82241 14.7887 7.99193 14.9681 8.14869 15.1375C8.30545 15.3071 8.50049 15.4837 8.73381 15.6674H18.2581C18.4859 15.4837 18.6796 15.3071 18.8391 15.1375C18.9986 14.9681 19.1695 14.7887 19.3517 14.5995L20.6668 13.1182C20.9219 12.8326 21.2236 12.6184 21.5721 12.4757C21.9204 12.3329 22.2879 12.2615 22.6744 12.2615C23.3765 12.2615 23.971 12.5349 24.4578 13.0819C24.9445 13.6288 25.1879 14.2687 25.1879 15.0016V15.6674H27V25.1752C27 25.974 26.731 26.6445 26.1931 27.1867C25.6552 27.7289 24.99 28 24.1975 28H2.80256ZM2.83674 20.628H24.1633V18.5266H2.83674V20.628ZM2.83674 25.1408H24.1633V23.4872H2.83674V25.1408Z" fill="#555555"/>
</svg>
