<svg width="26" height="25" viewBox="0 0 26 25" fill="none" xmlns="http://www.w3.org/2000/svg">
<path d="M6.61805 7.61081C5.82912 7.61081 5.16195 7.33217 4.61655 6.77489C4.07112 6.21759 3.7984 5.53589 3.7984 4.72979C3.7984 3.92372 4.07112 3.2407 4.61655 2.68073C5.16195 2.12074 5.82912 1.84074 6.61805 1.84074C7.40696 1.84074 8.07545 2.12074 8.62351 2.68073C9.17155 3.2407 9.44557 3.92372 9.44557 4.72979C9.44557 5.53589 9.17155 6.21759 8.62351 6.77489C8.07545 7.33217 7.40696 7.61081 6.61805 7.61081ZM2.73165 25C1.97372 25 1.32896 24.7284 0.797377 24.1852C0.265792 23.6421 0 22.9833 0 22.2089V13.1543H4.17761V12.2441C4.17761 11.4273 4.46784 10.7293 5.04831 10.1501C5.6288 9.57084 6.32973 9.28123 7.15109 9.28123C7.52836 9.28123 7.88787 9.35093 8.22962 9.49033C8.57138 9.6297 8.88178 9.83342 9.16082 10.1015L12.3911 13.0819C12.4121 13.098 12.4292 13.1141 12.4423 13.1301L12.462 13.1543H26V22.2089C26 22.9833 25.7342 23.6421 25.2026 24.1852C24.671 24.7284 24.0263 25 23.2684 25H2.73165ZM20.2212 9.11894L20.2448 8.99832C20.4862 8.28093 20.552 7.55233 20.4423 6.81252C20.3326 6.07272 20.0254 5.43379 19.5208 4.89575C18.9064 4.26803 18.4718 3.53383 18.2168 2.69314C17.9619 1.85245 17.9248 0.994941 18.1056 0.120622L18.1292 0H20.7349L20.7113 0.120622C20.5744 0.703501 20.5512 1.29199 20.6415 1.88607C20.7319 2.48016 20.9965 2.99018 21.4354 3.41613C22.1375 4.13352 22.5995 4.99103 22.8216 5.98865C23.0436 6.98627 23.0533 7.98949 22.8505 8.99832L22.8269 9.11894H20.2212ZM15.238 9.11894L15.2616 8.99832C15.4371 8.28093 15.4865 7.54673 15.4097 6.79571C15.3329 6.04469 15.0422 5.41137 14.5375 4.89575C13.9232 4.24561 13.4831 3.5002 13.2171 2.65951C12.9512 1.81882 12.9196 0.972522 13.1223 0.120622L13.146 0H15.7596L15.736 0.120622C15.6043 0.703501 15.5879 1.29199 15.6866 1.88607C15.7853 2.48016 16.0431 2.99018 16.46 3.41613C17.1841 4.13352 17.679 4.99103 17.9449 5.98865C18.2109 6.98627 18.1876 7.98949 17.8752 8.99832L17.8516 9.11894H15.238ZM19.319 22.2089H21.6886V15.9118H19.319V22.2089ZM14.3165 22.2089H16.6861V15.9118H14.3165V22.2089ZM9.31392 22.2089H11.6835V15.9118H9.31392V22.2089ZM4.31139 22.2089H6.68101V15.9118H4.31139V22.2089Z" fill="#555555"/>
</svg>
