<svg width="25" height="25" viewBox="0 0 25 25" fill="none" xmlns="http://www.w3.org/2000/svg">
<path d="M4.9375 18.6875H6.5V16.7188H18.5V18.6875H20.0625V13.5625C20.0625 12.9583 19.875 12.4271 19.5 11.9688C19.125 11.5104 18.6458 11.2292 18.0625 11.125L16.5 11.0312C16.9167 11.4479 17.5 11.5625 16.5 11.0312C15.9375 11.25 16.25 11.25 16.5 11.0312L8.4375 11.125C7.8125 11.5625 7.83333 11.125 8.4375 11.125C7.1875 11.25 8.02083 11.5417 8.4375 11.125H6.9375C6.35417 11.2292 5.875 11.5104 5.5 11.9688C5.125 12.4271 4.9375 12.9583 4.9375 13.5625V18.6875ZM6.5 15.1562V13.5625C6.5 13.2708 6.59375 13.0313 6.78125 12.8438C6.96875 12.6563 7.20833 12.5625 7.5 12.5625H17.5C17.7917 12.5625 18.0312 12.6563 18.2188 12.8438C18.4062 13.0313 18.5 13.2708 18.5 13.5625V15.1562H6.5ZM8.4375 11.125L16.5 11.5625V11.0312L8.4375 11.125ZM1.875 25C1.375 25 0.9375 24.8125 0.5625 24.4375C0.1875 24.0625 0 23.625 0 23.125V1.875C0 1.375 0.1875 0.9375 0.5625 0.5625C0.9375 0.1875 1.375 0 1.875 0H23.125C23.625 0 24.0625 0.1875 24.4375 0.5625C24.8125 0.9375 25 1.375 25 1.875V23.125C25 23.625 24.8125 24.0625 24.4375 24.4375C24.0625 24.8125 23.625 25 23.125 25H1.875ZM1.875 23.125H23.125V1.875H1.875V23.125Z" fill="#555555"/>
</svg>
