<svg width="17" height="23" viewBox="0 0 17 23" fill="none" xmlns="http://www.w3.org/2000/svg">
<path d="M0.5 22.375V0.625H9.5C11.5417 0.625 13.2604 1.29965 14.6562 2.64896C16.0521 3.99826 16.75 5.65972 16.75 7.63333C16.75 9.60694 16.0521 11.2684 14.6562 12.6177C13.2604 13.967 11.5417 14.6417 9.5 14.6417H4.25V22.375H0.5ZM4.25 11.0167H9.5C10.5 11.0167 11.3333 10.6944 12 10.05C12.6667 9.40556 13 8.6 13 7.63333C13 6.66667 12.6667 5.86111 12 5.21667C11.3333 4.57222 10.5 4.25 9.5 4.25H4.25V11.0167Z" fill="#555555"/>
</svg>
