<svg width="30" height="30" viewBox="0 0 30 30" fill="none" xmlns="http://www.w3.org/2000/svg">
<path d="M15.0938 24.7875C17.1813 24.7875 19.2063 24.3875 21.1688 23.5875C23.1313 22.7875 24.825 21.675 26.25 20.25L24.5625 18.75C24.3375 18.975 24.05 19.2188 23.7 19.4813C23.35 19.7438 23.0125 19.9625 22.6875 20.1375L21.15 17.2875V13.425H22.95V12.15H13.9125L11.025 7.2H6.2625L7.575 8.1375L4.9875 10.875L6.2625 12.1875L8.85 10.3875V17.2875L7.35 20.1375C7.025 19.9625 6.68125 19.7438 6.31875 19.4813C5.95625 19.2188 5.6625 18.975 5.4375 18.75L3.75 20.25C5.175 21.675 6.9 22.7875 8.925 23.5875C10.95 24.3875 13.0063 24.7875 15.0938 24.7875ZM15.0938 22.575C14.0813 22.575 13.05 22.4688 12 22.2563C10.95 22.0438 9.9 21.65 8.85 21.075L10.575 18.225C11.35 18.525 12.1022 18.75 12.8316 18.9C13.5611 19.05 14.2839 19.125 15 19.125C15.725 19.125 16.45 19.05 17.175 18.9C17.9 18.75 18.65 18.525 19.425 18.225L21.15 21.075C20.1 21.625 19.0813 22.0125 18.0938 22.2375C17.1063 22.4625 16.1063 22.575 15.0938 22.575ZM2.25 30C1.65 30 1.125 29.775 0.675 29.325C0.225 28.875 0 28.35 0 27.75V2.25C0 1.65 0.225 1.125 0.675 0.675C1.125 0.225 1.65 0 2.25 0H27.75C28.35 0 28.875 0.225 29.325 0.675C29.775 1.125 30 1.65 30 2.25V27.75C30 28.35 29.775 28.875 29.325 29.325C28.875 29.775 28.35 30 27.75 30H2.25ZM2.25 27.75H27.75V2.25H2.25V27.75Z" fill="#555555"/>
</svg>
