<svg width="29" height="29" viewBox="0 0 29 29" fill="none" xmlns="http://www.w3.org/2000/svg">
<path d="M14.5 29C12.76 28.8064 11.026 28.3043 9.29812 27.4937C7.57021 26.6831 6.0175 25.558 4.64 24.1183C3.2625 22.6786 2.14479 20.9001 1.28688 18.7829C0.428958 16.6656 0 14.2039 0 11.3977V10.0175H1.3775C2.65833 10.0175 4.02375 10.2655 5.47375 10.7616C6.92375 11.2576 8.20458 11.8928 9.31625 12.6671C9.50958 10.4894 10.0896 8.2451 11.0562 5.93429C12.0229 3.62349 13.1708 1.64539 14.5 0C15.8292 1.64539 16.9771 3.62349 17.9438 5.93429C18.9104 8.2451 19.4904 10.4894 19.6838 12.6671C20.7954 11.9412 22.0763 11.3181 23.5262 10.7979C24.9762 10.2776 26.3417 10.0175 27.6225 10.0175H29V11.3977C29 14.2039 28.571 16.6656 27.7131 18.7829C26.8552 20.9001 25.7375 22.6786 24.36 24.1183C22.9825 25.558 21.4298 26.6831 19.7019 27.4937C17.974 28.3043 16.24 28.8064 14.5 29ZM14.79 26.786C14.5242 22.2854 13.2265 18.8714 10.897 16.544C8.56748 14.2167 5.67223 12.7792 2.21125 12.2315C2.52542 16.9015 3.88479 20.3859 6.28937 22.6846C8.69396 24.9833 11.5275 26.3504 14.79 26.786ZM14.4637 17.8936C14.8021 17.2645 15.2673 16.587 15.8594 15.8611C16.4515 15.1352 17.0254 14.5302 17.5812 14.0463C17.7021 12.4009 17.4604 10.7313 16.8562 9.03755C16.2521 7.34376 15.4667 5.58949 14.5 3.77472C13.5333 5.58949 12.7479 7.34376 12.1437 9.03755C11.5396 10.7313 11.2979 12.4009 11.4187 14.0463C11.9746 14.5302 12.5365 15.1352 13.1044 15.8611C13.6723 16.587 14.1254 17.2645 14.4637 17.8936ZM16.965 26.169C18.1008 25.7576 19.2306 25.2132 20.3544 24.5357C21.4781 23.8582 22.4931 22.975 23.3994 21.8861C24.3056 20.7972 25.0669 19.4604 25.6831 17.8755C26.2994 16.2906 26.6679 14.4093 26.7887 12.2315C24.2271 12.6429 21.9675 13.5563 20.01 14.9718C18.0525 16.3874 16.6146 18.1356 15.6962 20.2165C15.9862 21.136 16.24 22.0615 16.4575 22.9931C16.675 23.9247 16.8442 24.9833 16.965 26.169Z" fill="#555555"/>
</svg>
