<svg width="29" height="29" viewBox="0 0 29 29" fill="none" xmlns="http://www.w3.org/2000/svg">
<path d="M3.06916 29C2.2191 29 1.49506 28.701 0.897036 28.103C0.299012 27.5049 0 26.7809 0 25.9308V3.06916C0 2.2191 0.299012 1.49506 0.897036 0.897036C1.49506 0.299012 2.2191 0 3.06916 0H25.9308C26.7809 0 27.5049 0.299012 28.103 0.897036C28.701 1.49506 29 2.2191 29 3.06916V25.9308C29 26.7809 28.701 27.5049 28.103 28.103C27.5049 28.701 26.7809 29 25.9308 29H3.06916ZM3.06916 20.9421V25.9308H5.62542V23.3746H4.29423V20.9421H3.06916ZM3.06916 18.0498H4.29423C4.29423 17.6308 4.41749 17.4553 4.664 17.1471C4.91052 16.839 5.23099 16.6233 5.62542 16.5L5.5 20.5C5.5 20.007 5.79798 20.03 6.1431 19.6849C6.48822 19.3398 6.9073 19.1672 7.40033 19.1672H10.9502C11.4432 19.1672 11.8623 19.3398 12.2074 19.6849C12.5525 20.03 12.7251 20.007 12.7251 20.5V16.5C13.1195 16.6233 13.44 16.839 13.6865 17.1471C13.933 17.4553 14.0563 17.6308 14.0563 18.0498H25.9308V3.06916H3.06916V18.0498ZM12.7251 25.9308H25.9308V20.9421H14.0563V23.3746H12.7251V25.9308ZM15.2765 12.2814C15.3751 12.0102 15.4491 11.739 15.4984 11.4679C15.5477 11.1967 15.5723 10.968 15.5723 10.7818C15.5723 10.4892 15.5169 10.21 15.4059 9.94397C15.295 9.67801 15.104 9.38479 14.8328 9.06432C14.4137 8.57129 14.1056 8.07039 13.9084 7.56163C13.7111 7.05287 13.6125 6.53072 13.6125 5.99519C13.6125 5.79798 13.6187 5.5946 13.631 5.38506C13.6434 5.17552 13.6701 4.95982 13.7112 4.73796H15.5723C15.523 5.00912 15.4799 5.24948 15.4429 5.45902C15.4059 5.66856 15.3875 5.84728 15.3875 5.99519C15.3875 6.34031 15.4553 6.66695 15.5908 6.97509C15.7264 7.28324 15.9421 7.60987 16.2379 7.95499C16.6077 8.39872 16.885 8.85686 17.0699 9.32941C17.2548 9.80198 17.3473 10.2806 17.3473 10.7653C17.3473 10.9625 17.3288 11.1844 17.2918 11.4309C17.2548 11.6774 17.1994 11.9609 17.1254 12.2814H15.2765ZM18.6415 12.2814C18.7401 12.0102 18.814 11.739 18.8633 11.4679C18.9126 11.1967 18.9373 10.968 18.9373 10.7818C18.9373 10.4892 18.8818 10.21 18.7709 9.94397C18.66 9.67801 18.4689 9.38479 18.1977 9.06432C17.7787 8.57129 17.4705 8.07039 17.2733 7.56163C17.0761 7.05287 16.9775 6.53072 16.9775 5.99519C16.9775 5.79798 16.9837 5.5946 16.996 5.38506C17.0083 5.17552 17.035 4.95982 17.0761 4.73796H18.9373C18.888 5.00912 18.8449 5.24948 18.8079 5.45902C18.7709 5.66856 18.7524 5.84728 18.7524 5.99519C18.7524 6.34031 18.8202 6.66695 18.9558 6.97509C19.0914 7.28324 19.3071 7.60987 19.6029 7.95499C19.9727 8.39872 20.25 8.85686 20.4349 9.32941C20.6198 9.80198 20.7122 10.2806 20.7122 10.7653C20.7122 10.9625 20.6937 11.1844 20.6567 11.4309C20.6198 11.6774 20.5643 11.9609 20.4903 12.2814H18.6415ZM22.1174 12.2814C22.216 12.0102 22.2899 11.739 22.3392 11.4679C22.3885 11.1967 22.4132 10.968 22.4132 10.7818C22.4132 10.4892 22.3577 10.21 22.2468 9.94397C22.1358 9.67801 21.9448 9.38479 21.6736 9.06432C21.2545 8.57129 20.9464 8.07039 20.7492 7.56163C20.552 7.05287 20.4534 6.53072 20.4534 5.99519C20.4534 5.79798 20.4595 5.5946 20.4719 5.38506C20.4842 5.17552 20.5109 4.95982 20.552 4.73796H22.4132C22.3639 5.00912 22.3207 5.24948 22.2838 5.45902C22.2468 5.66856 22.2283 5.84728 22.2283 5.99519C22.2283 6.34031 22.2961 6.66695 22.4317 6.97509C22.5672 7.28324 22.7829 7.60987 23.0788 7.95499C23.4485 8.39872 23.7259 8.85686 23.9108 9.32941C24.0956 9.80198 24.1881 10.2806 24.1881 10.7653C24.1881 10.9625 24.1696 11.1844 24.1326 11.4309C24.0956 11.6774 24.0402 11.9609 23.9662 12.2814H22.1174Z" fill="#555555"/>
</svg>
