<svg width="26" height="21" viewBox="0 0 26 21" fill="none" xmlns="http://www.w3.org/2000/svg">
<path d="M0 21V19.1138C0.606667 19.0509 1.12667 18.8832 1.56 18.6108C1.99333 18.3383 2.42667 18.0501 2.86 17.7463C3.29333 17.4424 3.78083 17.1751 4.3225 16.9446C4.86417 16.7141 5.53583 16.5988 6.3375 16.5988C7.13917 16.5988 7.82167 16.7298 8.385 16.9918C8.94833 17.2537 9.46292 17.5419 9.92875 17.8563C10.3946 18.1707 10.8658 18.4588 11.3425 18.7208C11.8192 18.9828 12.3717 19.1138 13 19.1138C13.6283 19.1138 14.1808 18.9828 14.6575 18.7208C15.1342 18.4588 15.6054 18.1707 16.0712 17.8563C16.5371 17.5419 17.0517 17.2537 17.615 16.9918C18.1783 16.7298 18.8608 16.5988 19.6625 16.5988C20.4642 16.5988 21.1304 16.7141 21.6612 16.9446C22.1921 17.1751 22.6796 17.4424 23.1237 17.7463C23.5679 18.0501 24.0067 18.3383 24.44 18.6108C24.8733 18.8832 25.3933 19.0509 26 19.1138V21C25.2417 20.9581 24.6079 20.8061 24.0987 20.5442C23.5896 20.2822 23.1129 19.9993 22.6687 19.6954C22.2246 19.3915 21.775 19.1138 21.32 18.8623C20.865 18.6108 20.3125 18.485 19.6625 18.485C19.0125 18.485 18.4437 18.616 17.9562 18.878C17.4688 19.14 16.9921 19.4281 16.5262 19.7425C16.0604 20.0569 15.5512 20.3451 14.9987 20.607C14.4462 20.869 13.78 21 13 21C12.22 21 11.5538 20.869 11.0012 20.607C10.4487 20.3451 9.93958 20.0569 9.47375 19.7425C9.00792 19.4281 8.53125 19.14 8.04375 18.878C7.55625 18.616 6.9875 18.485 6.3375 18.485C5.6875 18.485 5.12958 18.6108 4.66375 18.8623C4.19792 19.1138 3.74833 19.3915 3.315 19.6954C2.88167 19.9993 2.41042 20.2822 1.90125 20.5442C1.39208 20.8061 0.758333 20.9581 0 21ZM0 15.4671V13.5808C0.606667 13.518 1.12667 13.3503 1.56 13.0778C1.99333 12.8054 2.42667 12.5172 2.86 12.2133C3.29333 11.9094 3.78083 11.6422 4.3225 11.4117C4.86417 11.1811 5.53583 11.0659 6.3375 11.0659C7.13917 11.0659 7.82167 11.1969 8.385 11.4588C8.94833 11.7208 9.46292 12.009 9.92875 12.3234C10.3946 12.6377 10.8658 12.9259 11.3425 13.1879C11.8192 13.4499 12.3717 13.5808 13 13.5808C13.6283 13.5808 14.1808 13.4499 14.6575 13.1879C15.1342 12.9259 15.6054 12.6377 16.0712 12.3234C16.5371 12.009 17.0517 11.7208 17.615 11.4588C18.1783 11.1969 18.8608 11.0659 19.6625 11.0659C20.4642 11.0659 21.1304 11.1811 21.6612 11.4117C22.1921 11.6422 22.6796 11.9094 23.1237 12.2133C23.5679 12.5172 24.0067 12.8054 24.44 13.0778C24.8733 13.3503 25.3933 13.518 26 13.5808V15.4671C25.2417 15.3832 24.6079 15.2051 24.0987 14.9326C23.5896 14.6602 23.1129 14.3772 22.6687 14.0838C22.2246 13.7904 21.775 13.5284 21.32 13.2979C20.865 13.0674 20.3125 12.9521 19.6625 12.9521C19.0125 12.9521 18.4492 13.0831 17.9725 13.3451C17.4958 13.607 17.0192 13.8952 16.5425 14.2096C16.0658 14.524 15.5512 14.8121 14.9987 15.0741C14.4462 15.3361 13.78 15.4671 13 15.4671C12.22 15.4671 11.5538 15.3361 11.0012 15.0741C10.4487 14.8121 9.93958 14.524 9.47375 14.2096C9.00792 13.8952 8.53125 13.607 8.04375 13.3451C7.55625 13.0831 6.9875 12.9521 6.3375 12.9521C5.6875 12.9521 5.12958 13.0778 4.66375 13.3293C4.19792 13.5808 3.74833 13.8585 3.315 14.1624C2.88167 14.4663 2.41042 14.7493 1.90125 15.0112C1.39208 15.2732 0.758333 15.4251 0 15.4671ZM0 9.93413V8.0479C0.606667 8.00599 1.12667 7.85404 1.56 7.59207C1.99333 7.33009 2.42667 7.04716 2.86 6.74326C3.29333 6.43937 3.78083 6.16168 4.3225 5.91018C4.86417 5.65868 5.53583 5.53293 6.3375 5.53293C7.13917 5.53293 7.82167 5.66392 8.385 5.9259C8.94833 6.18787 9.46292 6.47605 9.92875 6.79042C10.3946 7.10479 10.8658 7.39296 11.3425 7.65494C11.8192 7.91692 12.3717 8.0479 13 8.0479C13.6283 8.0479 14.1808 7.91692 14.6575 7.65494C15.1342 7.39296 15.6054 7.10479 16.0712 6.79042C16.5371 6.47605 17.0517 6.18787 17.615 5.9259C18.1783 5.66392 18.8608 5.53293 19.6625 5.53293C20.4642 5.53293 21.1304 5.65868 21.6612 5.91018C22.1921 6.16168 22.6796 6.43937 23.1237 6.74326C23.5679 7.04716 24.0067 7.33009 24.44 7.59207C24.8733 7.85404 25.3933 8.00599 26 8.0479V9.93413C25.2417 9.89222 24.6079 9.74027 24.0987 9.47829C23.5896 9.21632 23.1129 8.93338 22.6687 8.62949C22.2246 8.3256 21.775 8.0479 21.32 7.79641C20.865 7.54491 20.3125 7.41916 19.6625 7.41916C19.0125 7.41916 18.4437 7.55015 17.9562 7.81213C17.4688 8.0741 16.9921 8.36228 16.5262 8.67665C16.0604 8.99102 15.5512 9.27919 14.9987 9.54117C14.4462 9.80314 13.78 9.93413 13 9.93413C12.22 9.93413 11.5538 9.80314 11.0012 9.54117C10.4487 9.27919 9.93958 8.99102 9.47375 8.67665C9.00792 8.36228 8.53125 8.0741 8.04375 7.81213C7.55625 7.55015 6.9875 7.41916 6.3375 7.41916C5.6875 7.41916 5.12958 7.54491 4.66375 7.79641C4.19792 8.0479 3.74833 8.3256 3.315 8.62949C2.88167 8.93338 2.41042 9.21632 1.90125 9.47829C1.39208 9.74027 0.758333 9.89222 0 9.93413ZM0 4.4012V2.51497C0.606667 2.4521 1.12667 2.28443 1.56 2.01198C1.99333 1.73952 2.42667 1.45135 2.86 1.14746C3.29333 0.843563 3.78083 0.576347 4.3225 0.345808C4.86417 0.115269 5.53583 0 6.3375 0C7.13917 0 7.82167 0.130988 8.385 0.392964C8.94833 0.65494 9.46292 0.943114 9.92875 1.25749C10.3946 1.57186 10.8658 1.86003 11.3425 2.12201C11.8192 2.38398 12.3717 2.51497 13 2.51497C13.6283 2.51497 14.1808 2.38398 14.6575 2.12201C15.1342 1.86003 15.6054 1.57186 16.0712 1.25749C16.5371 0.943114 17.0517 0.65494 17.615 0.392964C18.1783 0.130988 18.8608 0 19.6625 0C20.4642 0 21.1304 0.115269 21.6612 0.345808C22.1921 0.576347 22.6796 0.843563 23.1237 1.14746C23.5679 1.45135 24.0067 1.73952 24.44 2.01198C24.8733 2.28443 25.3933 2.4521 26 2.51497V4.4012C25.2417 4.35928 24.6079 4.20733 24.0987 3.94536C23.5896 3.68338 23.1129 3.40045 22.6687 3.09656C22.2246 2.79266 21.775 2.51497 21.32 2.26347C20.865 2.01198 20.3125 1.88623 19.6625 1.88623C19.0125 1.88623 18.4437 2.01722 17.9562 2.27919C17.4688 2.54117 16.9921 2.82934 16.5262 3.14371C16.0604 3.45808 15.5512 3.74626 14.9987 4.00823C14.4462 4.27021 13.78 4.4012 13 4.4012C12.22 4.4012 11.5538 4.27021 11.0012 4.00823C10.4487 3.74626 9.93958 3.45808 9.47375 3.14371C9.00792 2.82934 8.53125 2.54117 8.04375 2.27919C7.55625 2.01722 6.9875 1.88623 6.3375 1.88623C5.6875 1.88623 5.12958 2.01198 4.66375 2.26347C4.19792 2.51497 3.74833 2.79266 3.315 3.09656C2.88167 3.40045 2.41042 3.68338 1.90125 3.94536C1.39208 4.20733 0.758333 4.35928 0 4.4012Z" fill="#555555"/>
</svg>
