<svg width="27" height="29" viewBox="0 0 27 29" fill="none" xmlns="http://www.w3.org/2000/svg">
<path d="M1.97155 24.8656L0.583008 23.4771L6.20473 17.8554C6.91316 17.1469 7.41808 16.2599 7.71947 15.1943C8.02085 14.1286 8.17155 12.6378 8.17155 10.7219C8.17155 9.4953 8.44065 8.28988 8.97884 7.10559C9.51704 5.92131 10.3351 4.7802 11.433 3.68229C13.3275 1.78784 15.4058 0.711455 17.6681 0.453122C19.9303 0.194788 21.7916 0.797566 23.2518 2.26145C24.7156 3.72534 25.3184 5.59826 25.0601 7.8802C24.8018 10.1621 23.7254 12.2503 21.8309 14.1448C20.733 15.2427 19.5919 16.05 18.4076 16.5667C17.2233 17.0833 16.0179 17.3417 14.7913 17.3417C12.8754 17.3417 11.3738 17.4816 10.2867 17.7615C9.1995 18.0413 8.30072 18.5365 7.5903 19.2469L1.97155 24.8656ZM11.3361 14.1448C12.391 15.1996 13.8226 15.5925 15.6309 15.3234C17.4393 15.0543 19.0646 14.1986 20.507 12.7562C21.9467 11.3229 22.8071 9.7159 23.0883 7.93536C23.3695 6.15484 22.9827 4.73715 21.9278 3.68229C20.8729 2.62743 19.4467 2.23455 17.6492 2.50364C15.8516 2.77274 14.2316 3.62847 12.7893 5.07083C11.3469 6.51319 10.4804 8.12333 10.1898 9.90124C9.89915 11.6792 10.2813 13.0937 11.3361 14.1448ZM21.7663 28.7083C20.4747 28.7083 19.3768 28.2562 18.4726 27.3521C17.5684 26.4479 17.1163 25.35 17.1163 24.0583C17.1163 22.7667 17.5684 21.6687 18.4726 20.7646C19.3768 19.8604 20.4747 19.4083 21.7663 19.4083C23.058 19.4083 24.1559 19.8604 25.0601 20.7646C25.9643 21.6687 26.4163 22.7667 26.4163 24.0583C26.4163 25.35 25.9643 26.4479 25.0601 27.3521C24.1559 28.2562 23.058 28.7083 21.7663 28.7083ZM21.7663 26.7708C22.5413 26.7708 23.1872 26.5125 23.7038 25.9958C24.2205 25.4792 24.4788 24.8333 24.4788 24.0583C24.4788 23.2833 24.2205 22.6375 23.7038 22.1208C23.1872 21.6042 22.5413 21.3458 21.7663 21.3458C20.9913 21.3458 20.3455 21.6042 19.8288 22.1208C19.3122 22.6375 19.0538 23.2833 19.0538 24.0583C19.0538 24.8333 19.3122 25.4792 19.8288 25.9958C20.3455 26.5125 20.9913 26.7708 21.7663 26.7708Z" fill="#555555"/>
</svg>
