<svg width="26" height="32" viewBox="0 0 26 32" fill="none" xmlns="http://www.w3.org/2000/svg">
<path d="M3.61562 32C3.26354 32 2.95208 31.8947 2.68125 31.6842C2.41042 31.4737 2.275 31.2 2.275 30.8632V27.3263C1.48958 26.8772 0.914062 26.2316 0.548437 25.3895C0.182812 24.5474 0 23.6491 0 22.6947V5.97895C0 3.90175 1.03594 2.38596 3.10781 1.43158C5.17969 0.477193 8.49062 0 13.0406 0C17.5365 0 20.8203 0.477193 22.8922 1.43158C24.9641 2.38596 26 3.90175 26 5.97895V22.6947C26 23.6491 25.8172 24.5474 25.4516 25.3895C25.0859 26.2316 24.5104 26.8772 23.725 27.3263V30.8632C23.725 31.2 23.5896 31.4737 23.3187 31.6842C23.0479 31.8947 22.7365 32 22.3844 32H21.6125C21.2333 32 20.9083 31.8947 20.6375 31.6842C20.3667 31.4737 20.2312 31.2 20.2312 30.8632V28.5474H5.76875V30.8632C5.76875 31.2 5.63333 31.4737 5.3625 31.6842C5.09167 31.8947 4.76667 32 4.3875 32H3.61562ZM13.0406 4.88421H23.5625H2.4375H13.0406ZM20.2312 17.2211H2.4375H23.5625H20.2312ZM2.4375 14.6947H23.5625V7.41053H2.4375V14.6947ZM6.74375 23.9158C7.36667 23.9158 7.89479 23.6912 8.32812 23.2421C8.76146 22.793 8.97812 22.2456 8.97812 21.6C8.97812 20.9544 8.76146 20.407 8.32812 19.9579C7.89479 19.5088 7.36667 19.2842 6.74375 19.2842C6.12083 19.2842 5.59271 19.5088 5.15937 19.9579C4.72604 20.407 4.50937 20.9544 4.50937 21.6C4.50937 22.2456 4.72604 22.793 5.15937 23.2421C5.59271 23.6912 6.12083 23.9158 6.74375 23.9158ZM19.2562 23.9158C19.8792 23.9158 20.4073 23.6912 20.8406 23.2421C21.274 22.793 21.4906 22.2456 21.4906 21.6C21.4906 20.9544 21.274 20.407 20.8406 19.9579C20.4073 19.5088 19.8792 19.2842 19.2562 19.2842C18.6333 19.2842 18.1052 19.5088 17.6719 19.9579C17.2385 20.407 17.0219 20.9544 17.0219 21.6C17.0219 22.2456 17.2385 22.793 17.6719 23.2421C18.1052 23.6912 18.6333 23.9158 19.2562 23.9158ZM2.4375 4.88421H23.5625C22.9125 4.15439 21.6667 3.57895 19.825 3.15789C17.9833 2.73684 15.7219 2.52632 13.0406 2.52632C9.84479 2.52632 7.39375 2.71579 5.6875 3.09474C3.98125 3.47368 2.89792 4.07018 2.4375 4.88421ZM5.76875 26.0211H20.2312C21.1792 26.0211 21.9714 25.6421 22.6078 24.8842C23.2443 24.1263 23.5625 23.2561 23.5625 22.2737V17.2211H2.4375V22.2737C2.4375 23.2561 2.75573 24.1263 3.39219 24.8842C4.02865 25.6421 4.82083 26.0211 5.76875 26.0211Z" fill="#555555"/>
</svg>
