<svg width="26" height="26" viewBox="0 0 26 26" fill="none" xmlns="http://www.w3.org/2000/svg">
<path d="M1.9375 25.8333C1.42083 25.8333 0.96875 25.6396 0.58125 25.2521C0.19375 24.8646 0 24.4125 0 23.8958V18.3417H1.9375V23.8958H7.49167V25.8333H1.9375ZM0 7.49167V1.9375C0 1.42083 0.19375 0.96875 0.58125 0.58125C0.96875 0.19375 1.42083 0 1.9375 0H7.49167V1.9375H1.9375V7.49167H0ZM11.9479 21.8615C9.83819 21.6247 8.04062 20.7635 6.55521 19.2781C5.06979 17.7927 4.20868 15.9951 3.97187 13.8854H5.87708C6.09236 15.4785 6.7651 16.8347 7.89531 17.9542C9.02552 19.0736 10.3764 19.741 11.9479 19.9562V21.8615ZM3.97187 11.9479C4.20868 9.83819 5.06979 8.04062 6.55521 6.55521C8.04062 5.06979 9.83819 4.20868 11.9479 3.97187V5.87708C10.3549 6.09236 8.99861 6.75972 7.87917 7.87917C6.75972 8.99861 6.09236 10.3549 5.87708 11.9479H3.97187ZM12.9167 15.1771C12.2924 15.1771 11.7595 14.9564 11.3182 14.5151C10.8769 14.0738 10.6562 13.541 10.6562 12.9167C10.6562 12.2924 10.8769 11.7595 11.3182 11.3182C11.7595 10.8769 12.2924 10.6562 12.9167 10.6562C13.541 10.6562 14.0738 10.8769 14.5151 11.3182C14.9564 11.7595 15.1771 12.2924 15.1771 12.9167C15.1771 13.541 14.9564 14.0738 14.5151 14.5151C14.0738 14.9564 13.541 15.1771 12.9167 15.1771ZM13.8854 21.8615V19.9562C15.4785 19.741 16.8347 19.0682 17.9542 17.938C19.0736 16.8078 19.741 15.4569 19.9562 13.8854H21.8615C21.6247 15.9951 20.7635 17.7927 19.2781 19.2781C17.7927 20.7635 15.9951 21.6247 13.8854 21.8615ZM19.9562 11.9479C19.741 10.3549 19.0736 8.99861 17.9542 7.87917C16.8347 6.75972 15.4785 6.09236 13.8854 5.87708V3.97187C15.9951 4.20868 17.7927 5.06979 19.2781 6.55521C20.7635 8.04062 21.6247 9.83819 21.8615 11.9479H19.9562ZM18.3417 25.8333V23.8958H23.8958V18.3417H25.8333V23.8958C25.8333 24.4125 25.6396 24.8646 25.2521 25.2521C24.8646 25.6396 24.4125 25.8333 23.8958 25.8333H18.3417ZM23.8958 7.49167V1.9375H18.3417V0H23.8958C24.4125 0 24.8646 0.19375 25.2521 0.58125C25.6396 0.96875 25.8333 1.42083 25.8333 1.9375V7.49167H23.8958Z" fill="#555555"/>
</svg>
