<svg width="13" height="15" viewBox="0 0 13 15" fill="none" xmlns="http://www.w3.org/2000/svg">
<path d="M3.91737 5.95667L5.21188 7.96539L6.11952 6.92383L4.76549 5.33174C5.34579 4.48361 5.197 3.08495 4.334 1.93924C3.3222 0.585219 1.70034 0.0644395 0.718303 0.793529C-0.263736 1.52262 -0.233974 3.21887 0.777824 4.57289C1.65571 5.73349 2.95021 6.26914 3.91737 5.95667Z" fill="#030A1B"/>
<path d="M7.77171 8.87268L6.78967 10.4053L9.17037 14.0805C9.5126 14.6161 10.2417 14.75 10.7625 14.3632L10.8517 14.2888C11.3576 13.9019 11.4469 13.1728 11.0303 12.6818L7.77171 8.87268Z" fill="#030A1B"/>
<path d="M12.9209 2.04353C12.7869 1.87986 12.534 1.89473 12.415 2.05841C12.415 2.05841 10.7187 4.2308 10.2426 4.84085C10.1682 4.93013 10.0343 4.945 9.94498 4.88549C9.8557 4.81109 9.82595 4.69205 9.90034 4.5879L11.9388 1.71618C12.0281 1.59715 12.0281 1.4186 11.9239 1.29956C11.79 1.13589 11.5371 1.15076 11.418 1.31444C11.418 1.31444 9.7218 3.48683 9.24566 4.09688C9.17126 4.18616 9.03734 4.20104 8.94807 4.14152C8.85879 4.06712 8.82903 3.94809 8.90342 3.84393C9.36468 3.20412 10.9568 0.957338 10.9568 0.957338C11.0758 0.793664 11.0163 0.555587 10.8229 0.466311C10.689 0.406794 10.5253 0.451433 10.4211 0.570468L8.1297 3.51658L7.83212 3.90345C7.53453 4.30519 7.40061 4.78134 7.46013 5.19796L7.59404 6.06096L1.89524 12.6674C1.47862 13.1584 1.5679 13.8875 2.0738 14.2744L2.16307 14.3488C2.66897 14.7356 3.39806 14.6017 3.75516 14.0661L8.45704 6.73053L9.33493 6.6115C9.75155 6.55198 10.1682 6.28415 10.4806 5.88241L10.7782 5.49555L12.9357 2.46015C13.025 2.34112 13.025 2.16257 12.9209 2.04353Z" fill="#030A1B"/>
</svg>
