<svg width="14" height="15" viewBox="0 0 14 15" fill="none" xmlns="http://www.w3.org/2000/svg">
<path d="M3.31579 0.440063C2.09753 0.440063 1.10526 1.43233 1.10526 2.65059V8.36112H1.84211V2.65059C1.84211 1.8278 2.493 1.17691 3.31579 1.17691C4.01002 1.17691 4.58167 1.64313 4.74342 2.28217H5.49178C5.31481 1.23952 4.4078 0.440063 3.31579 0.440063ZM5.15789 2.65059C4.34147 2.65059 3.68421 3.30785 3.68421 4.12427H6.63158C6.63158 3.30785 5.97432 2.65059 5.15789 2.65059ZM4.05263 4.86112C3.84915 4.86112 3.68421 5.02606 3.68421 5.22954V5.59796C3.68421 5.80143 3.84915 5.96638 4.05263 5.96638C4.25611 5.96638 4.42105 5.80143 4.42105 5.59796V5.22954C4.42105 5.02606 4.25611 4.86112 4.05263 4.86112ZM6.26316 4.86112C6.05968 4.86112 5.89474 5.02606 5.89474 5.22954V5.59796C5.89474 5.80143 6.05968 5.96638 6.26316 5.96638C6.46664 5.96638 6.63158 5.80143 6.63158 5.59796V5.22954C6.63158 5.02606 6.46664 4.86112 6.26316 4.86112ZM5.15789 6.15059C4.95442 6.15059 4.78947 6.31555 4.78947 6.51901V6.88743C4.78947 7.09091 4.95442 7.25585 5.15789 7.25585C5.36137 7.25585 5.52632 7.09091 5.52632 6.88743V6.51901C5.52632 6.31555 5.36137 6.15059 5.15789 6.15059ZM0 8.72954C0 11.2809 2.05395 13.3348 4.60526 13.3348H9.39474C11.9461 13.3348 14 11.2809 14 8.72954H0ZM3.73026 13.7032C3.8731 14.3395 4.37112 14.8085 4.97368 14.8085H9.02632C9.62888 14.8085 10.1269 14.3395 10.2697 13.7032H3.73026Z" fill="#030A1B"/>
</svg>
